<svg xmlns="http://www.w3.org/2000/svg" xmlns:xlink="http://www.w3.org/1999/xlink" width="34" height="34" viewBox="0 0 34 34">
    <defs>
        <path id="prefix__a" d="M0.136 0.024L1.781 0.024 1.781 5.485 0.136 5.485z"/>
        <path id="prefix__c" d="M0.158 0.132L5.637 0.132 5.637 1.683 0.158 1.683z"/>
    </defs>
    <g fill="none" fill-rule="evenodd">
        <path fill="#3E4D73" d="M9.733 21.724c-.096.374-.406.464-.688.2l-5.488-5.12c-.282-.264-.22-.596.14-.74l7.697-3.077c.359-.143.573.046.477.42l-2.138 8.317z"/>
        <path fill="#536696" d="M5.198 26.59c-.292.253-.588.148-.657-.232l-1.504-8.322c-.068-.38.107-.475.389-.212l5.223 4.874c.282.263.273.685-.019.937L5.198 26.59zM11.499 11.33c.252.293.164.65-.194.793l-7.655 3.06c-.359.143-.542-.036-.407-.398l3.143-8.448c.135-.362.451-.419.703-.126l4.41 5.12zM3.479 25.176c.068.38-.047.425-.257.1L.253 20.693c-.21-.324-.192-.842.039-1.151l1.326-1.777c.23-.31.476-.252.544.128l1.317 7.284zM2.544 14.267c-.135.362-.344.358-.466-.008l-1.014-3.043c-.122-.366.012-.878.298-1.137l3.615-3.277c.286-.26.41-.175.275.187l-2.708 7.278zM1.59 15.44c.122.367.033.92-.198 1.229L.354 18.06c-.23.31-.387.248-.348-.135l.498-4.83c.04-.385.172-.4.294-.033l.792 2.378zM5.67 4.563c.128.15 0 .483-.287.743L3.757 6.78c-.286.26-.332.218-.102-.092l1.362-1.833c.23-.31.524-.441.653-.292M15.932 30.27c-.195.333-.534.346-.752.028l-4.252-6.187c-.218-.318-.083-.61.301-.65l8.542-.882c.384-.04.539.2.344.534l-4.183 7.157zM14.151 30.276c.219.318.099.477-.267.353l-8.008-2.721c-.365-.124-.425-.432-.132-.684l3.431-2.956c.293-.252.711-.198.93.12l4.046 5.888z"/>
        <path fill="#5FC4D7" d="M19.95 21.141c.251.293.143.565-.241.604l-8.669.895c-.384.04-.62-.234-.523-.608l2.169-8.44c.096-.374.381-.44.633-.148l6.63 7.697z"/>
        <path fill="#536696" d="M26.179 28.374c.252.293.15.597-.229.677l-8.821 1.857c-.378.08-.527-.129-.333-.462l4.161-7.117c.195-.333.56-.367.812-.074l4.41 5.12zM11.989 33.121c-.34.183-.855.123-1.145-.133L6.75 29.373c-.29-.256-.227-.363.138-.239l7.008 2.382c.366.124.386.375.046.557l-1.953 1.048zM21.505 33.465c-.299.245-.825.302-1.17.126l-2.858-1.453c-.344-.175-.316-.383.061-.463l7.6-1.6c.377-.079.442.056.143.3l-3.776 3.09zM13.545 33.643c-.386-.017-.423-.181-.082-.364l1.53-.82c.34-.183.9-.189 1.244-.014l2.234 1.136c.344.175.31.303-.075.286l-4.851-.224zM27.598 30.022c.129.15-.045.42-.385.602L25.198 31.7c-.34.182-.375.13-.076-.114l1.7-1.39c.298-.244.648-.322.776-.173"/>
        <path fill="#3E4D73" d="M22.507 21.052c-.358.144-.573-.045-.477-.419l2.138-8.317c.096-.374.406-.465.688-.201l5.488 5.121c.283.263.22.596-.138.74l-7.699 3.076z"/>
        <path fill="#536696" d="M30.864 16.004c.069.38-.106.475-.388.211l-5.223-4.873c-.283-.264-.274-.685.018-.937l3.432-2.956c.293-.252.588-.148.657.232l1.504 8.323zM27.515 27.703c-.135.362-.45.419-.703.126l-4.41-5.12c-.251-.292-.164-.649.194-.792l7.656-3.06c.358-.144.542.035.407.397l-3.144 8.45zM33.648 13.347c.21.324.193.842-.038 1.152l-1.326 1.776c-.23.31-.476.252-.545-.128l-1.316-7.283c-.069-.38.047-.426.257-.102l2.968 4.585zM32.838 22.823c.122.367-.012.878-.298 1.137l-3.615 3.277c-.286.26-.41.176-.276-.186l2.709-7.278c.134-.362.344-.358.466.008l1.014 3.042z"/>
        <g transform="translate(32.12 15.758)">
            <mask id="prefix__b" fill="#fff">
                <use xlink:href="#prefix__a"/>
            </mask>
            <path fill="#536696" d="M1.277 5.187c-.04.384-.171.399-.294.033L.191 2.842c-.122-.367-.033-.92.198-1.229L1.427.222c.231-.31.388-.249.348.135l-.498 4.83z" mask="url(#prefix__b)"/>
        </g>
        <path fill="#536696" d="M28.884 29.185c-.23.31-.524.44-.652.292-.129-.15 0-.484.286-.743l1.626-1.474c.286-.26.332-.218.102.092l-1.362 1.833z"/>
        <path fill="#3E4D73" d="M22.973 9.928c.219.319.083.611-.3.651l-8.543.882c-.384.04-.539-.2-.344-.534L17.97 3.77c.195-.334.533-.346.752-.028l4.251 6.186z"/>
        <path fill="#536696" d="M24.726 9.771c-.293.252-.71.198-.93-.12l-4.045-5.888c-.219-.318-.099-.477.267-.352l8.007 2.72c.365.125.425.432.132.684l-3.431 2.956zM21.215 20.448c-.096.374-.38.44-.633.148l-6.63-7.698c-.252-.292-.144-.564.24-.604l8.669-.894c.384-.04.62.234.524.608l-2.17 8.44zM12.944 10.71c-.194.334-.56.368-.812.075l-4.41-5.12c-.252-.292-.149-.596.23-.676l8.82-1.857c.378-.08.528.128.333.462l-4.16 7.117zM20.005 2.524c-.365-.125-.386-.375-.046-.558L21.913.918c.34-.182.855-.123 1.144.133l4.094 3.615c.29.256.228.363-.138.24l-7.008-2.382zM8.764 3.964c-.378.08-.442-.056-.144-.3l3.777-3.09c.299-.244.824-.301 1.169-.126l2.858 1.454c.345.174.317.383-.06.462l-7.6 1.6z"/>
        <g transform="translate(15.035 .04)">
            <mask id="prefix__d" fill="#fff">
                <use xlink:href="#prefix__c"/>
            </mask>
            <path fill="#536696" d="M3.874 1.542c-.34.182-.9.189-1.244.014L.396.419C.05.244.086.116.47.133l4.85.224c.386.018.423.182.083.364l-1.53.821z" mask="url(#prefix__d)"/>
        </g>
        <path fill="#536696" d="M7.08 3.844c-.299.245-.648.323-.777.174-.128-.15.045-.42.386-.602L8.703 2.34c.341-.182.375-.13.076.114L7.08 3.844zM4.494 28.3c.15-.128.483 0 .743.287l1.474 1.627c.26.286.218.331-.092.101l-1.833-1.362c-.31-.23-.441-.524-.292-.652M29.953 6.372c.15-.128.42.045.602.386l1.075 2.014c.182.34.13.375-.114.076l-1.39-1.699c-.244-.299-.322-.648-.173-.777M29.116 5.087c.31.23.44.523.292.652-.15.128-.484 0-.743-.286L27.19 3.826c-.26-.286-.218-.332.092-.101l1.833 1.362zM3.775 26.89c.245.3.323.649.174.777-.15.129-.42-.045-.602-.385L2.27 25.267c-.182-.34-.13-.375.114-.076l1.39 1.7z"/>
    </g>
</svg>
